<?xml version="1.0" encoding="utf-8"?>
<!-- Svg Vector Icons : http://www.onlinewebfonts.com/icon -->
<!DOCTYPE svg PUBLIC "-//W3C//DTD SVG 1.1//EN" "http://www.w3.org/Graphics/SVG/1.1/DTD/svg11.dtd">
<svg version="1.1" xmlns="http://www.w3.org/2000/svg" xmlns:xlink="http://www.w3.org/1999/xlink" x="0px" y="0px" viewBox="0 0 1000 1000" enable-background="new 0 0 1000 1000" xml:space="preserve">
  <metadata>
    Svg Vector Icons : http://www.onlinewebfonts.com/icon
  </metadata>
  <g><path
    d="M500,10C229.4,10,10,229.4,10,500s219.4,490,490,490s490-219.4,490-490S770.6,10,500,10z M585.1,844.5H450.9V714.9H585L585.1,844.5L585.1,844.5z M713.1,466.8c-11.4,16.2-33.1,36.8-65.3,61.9l-31.8,24.7c-17.3,13.5-28.8,29.2-34.5,47.1c-3.6,11.4-5.5,29-5.8,52.9H454.1c1.8-50.5,6.6-85.5,14.3-104.7c7.8-19.3,27.7-41.5,60-66.6l32.6-25.5c10.7-8.1,19.4-16.9,26-26.5c11.8-16.5,17.8-34.5,17.8-54.3c0-22.7-6.6-43.5-19.8-62.2c-13.3-18.7-37.6-28-72.8-28c-34.6,0-59.2,11.5-73.6,34.5c-14.5,23-21.7,47-21.7,71.8H287.2c3.6-85.2,33.3-145.7,89.2-181.2c35.3-22.7,78.7-34.1,130.1-34.1c67.6,0,123.7,16.2,168.4,48.5c44.7,32.2,67.1,80.2,67.1,143.6C742.1,407.5,732.4,440.2,713.1,466.8z"/></g>
</svg>