<?xml version="1.0" encoding="utf-8"?>
<!-- Svg Vector Icons : http://www.onlinewebfonts.com/icon -->
<!DOCTYPE svg PUBLIC "-//W3C//DTD SVG 1.1//EN" "http://www.w3.org/Graphics/SVG/1.1/DTD/svg11.dtd">
<svg version="1.1" xmlns="http://www.w3.org/2000/svg" xmlns:xlink="http://www.w3.org/1999/xlink" x="0px" y="0px" viewBox="0 0 1000 1000" enable-background="new 0 0 1000 1000" xml:space="preserve">
  <metadata>
    Svg Vector Icons : http://www.onlinewebfonts.com/icon
  </metadata>
  <g>
    <g transform="translate(0.000000,512.000000) scale(0.100000,-0.100000)"><path
      d="M4550,5003.8c-928.7-95.7-1771.3-423.2-2512.3-976.6c-241.3-180-762.1-700.9-942.1-942.1c-1328.9-1780.8-1327-4145.7,3.8-5928.5c176.2-237.4,697-758.3,934.5-934.5c1784.7-1332.8,4147.7-1332.8,5934.2,0c233.6,176.2,756.4,698.9,932.5,932.6C9704.9-1767.2,10040-459.4,9846.5,846.6c-120.6,800.4-446.2,1576-944,2240.4c-170.4,227.9-578.3,649.2-810,836.8c-674,547.7-1507,915.3-2374.5,1045.5C5428.9,5013.4,4814.2,5032.5,4550,5003.8z M5612.7,2267.4V735.5H5000h-612.8v1531.9v1531.9H5000h612.8V2267.4z M3772.5,2570v-561.1l-134-95.7c-254.7-181.9-518.9-497.9-672.1-804.3c-304.5-608.9-302.5-1373,3.8-1985.7c300.6-601.3,817.7-1020.6,1474.5-1196.8c247-65.1,674-82.3,936.4-36.4c888.5,155.1,1602.8,821.5,1823,1700.4c55.5,224,70.9,672.1,28.7,907.7c-99.6,572.5-453.8,1135.5-909.6,1443.8l-95.7,67l-1.9,559.2v559.1l122.6-53.6c614.7-277.7,1179.6-806.2,1508.9-1413.2c430.8-792.8,507.4-1731,214.5-2588.9c-271.9-792.8-871.3-1476.4-1633.4-1859.4c-1013-507.4-2240.4-436.6-3199.8,187.7c-716.2,465.3-1221.7,1189.2-1405.5,2014.5C1509.1,879.1,2211.9,2349.8,3560,3027.7c113,55.5,206.8,101.5,210.6,101.5C3772.5,3129.1,3774.4,2876.4,3772.5,2570z"/></g>
  </g>
</svg>