<?xml version="1.0" encoding="utf-8"?>
<!-- Svg Vector Icons : http://www.onlinewebfonts.com/icon -->
<!DOCTYPE svg PUBLIC "-//W3C//DTD SVG 1.1//EN" "http://www.w3.org/Graphics/SVG/1.1/DTD/svg11.dtd">
<svg version="1.1" xmlns="http://www.w3.org/2000/svg" xmlns:xlink="http://www.w3.org/1999/xlink" x="0px" y="0px" viewBox="0 0 1000 1000" enable-background="new 0 0 1000 1000" xml:space="preserve">
  <metadata>
    Svg Vector Icons : http://www.onlinewebfonts.com/icon
  </metadata>
  <g>
    <g transform="translate(0.000000,511.000000) scale(0.100000,-0.100000)"><path
      d="M4424,4979.9C2218.4,4711.8,466.2,3002.9,154.8,819c-98.5-689.9-65-1291,108.4-1957.2C395.2-1646.7,621.9-2155.2,907.7-2583c220.8-331.1,370.6-512.5,652.4-794.3c544-540.1,1180.6-928.3,1923.7-1172.8c506.6-167.5,955.9-236.5,1527.5-236.5c579.5,0,1001.3,67,1547.2,248.3C8314.8-3954.8,9580.2-2437.1,9862-578.4c49.3,327.2,51.3,1050.6,2,1369.9C9702.4,1840,9247.1,2770.4,8529.6,3517.4C7739.3,4341.3,6667,4863.6,5510,4989.7C5253.8,5015.4,4688.1,5011.4,4424,4979.9z M6028.4,3326.2c1149.1-232.6,1965.1-985.5,2233.2-2055.8c78.8-315.4,98.5-488.8,98.5-863.3c0-372.5-17.7-528.2-98.5-831.8c-175.4-664.2-595.3-1149.1-1101.8-1277.2c-132.1-33.5-449.4-39.4-579.5-7.9c-214.8,49.3-461.2,224.7-565.7,402.1c-27.6,47.3-61.1,88.7-74.9,94.6c-13.8,5.9-61.1-25.6-102.5-69c-199.1-205-477-364.6-731.3-421.8c-114.3-25.6-212.9-29.6-435.6-23.7c-260.2,7.9-307.5,15.8-475,72.9c-102.5,33.5-238.5,94.6-299.6,132.1c-335.1,203-567.7,542-660.3,963.8c-51.3,234.6-47.3,709.6,7.9,954c76.9,337,218.8,603.1,453.3,851.5c500.6,532.2,1243.7,695.8,2319.9,510.5c256.2-43.4,622.8-132.1,644.5-153.7c5.9-7.9-9.9-453.3-35.5-989.5c-61.1-1231.9-55.2-1360,72.9-1507.8c108.4-124.2,281.9-118.3,423.8,13.8c167.5,155.7,281.9,480.9,325.2,932.3c157.7,1634-853.5,2690.5-2451.9,2554.5c-153.8-11.8-341-35.5-417.9-51.3c-1062.4-228.6-1752.2-963.8-1965.1-2089.3c-57.2-311.4-63.1-959.9-7.9-1249.6c63.1-341,189.2-668.2,350.8-904.7c96.6-143.9,346.9-382.4,502.6-484.9c638.6-412,1643.8-479,2804.8-187.3c167.5,41.4,382.4,102.5,479,134l171.5,59.1l-3.9-398.2l-5.9-398.2l-167.5-65c-214.9-84.7-695.8-208.9-975.7-250.3c-291.7-43.4-987.5-61.1-1296.9-31.5c-849.5,80.8-1500,362.7-2004.5,867.2c-502.6,504.6-762.8,1135.3-806.1,1953.3c-57.2,1099.8,254.3,2053.8,902.7,2779.2c402.1,451.4,1032.8,825.9,1647.8,983.5C4768.9,3416.9,5480.4,3438.5,6028.4,3326.2z"/><path
      d="M5031.1,1065.4c-522.3-74.9-843.6-475-871.2-1082.1c-13.8-277.9,13.8-459.2,94.6-624.8c104.5-216.8,264.1-313.4,551.9-335.1c480.9-35.5,768.7,289.7,835.7,950c27.6,272,67,1044.7,53.2,1058.5c-17.7,17.7-341,55.2-457.3,53.2C5188.7,1083.2,5096.1,1075.3,5031.1,1065.4z"/></g>
  </g>
</svg>