<?xml version="1.0" encoding="iso-8859-1"?>
<!-- Generator: Adobe Illustrator 19.0.0, SVG Export Plug-In . SVG Version: 6.00 Build 0) -->
<svg
	credit="Icon made by Freepik from www.flaticon.com"
	version="1.1"
	id="Capa_1"
	xmlns="http://www.w3.org/2000/svg"
	xmlns:xlink="http://www.w3.org/1999/xlink"
	x="0px"
	y="0px"
	viewBox="0 0 512 512"
	style="enable-background:new 0 0 512 512;"
	xml:space="preserve">
	<g>
		<path d="M510.412,129.292c-3.706-7.412-12.729-10.386-20.127-6.709l-59.999,30c-7.412,3.706-10.415,12.715-6.709,20.127
			c3.701,7.382,12.665,10.415,20.127,6.709l59.999-30C511.115,145.713,514.118,136.704,510.412,129.292z"/>
	</g>
	<g>
		<path d="M503.703,302.581l-59.999-30c-7.412-3.691-16.406-0.718-20.127,6.709c-3.706,7.412-0.703,16.421,6.709,20.127l59.999,30
			c7.484,3.717,16.438,0.649,20.127-6.709C514.118,315.296,511.115,306.287,503.703,302.581z"/>
	</g>
	<g>
		<path
			d="M344.996,242H119.999v-76.999c0-41.353,33.647-74.999,74.999-74.999c41.352,0,74.999,33.647,74.999,74.999v30
			c0,8.291,6.709,15,15,15h59.999c8.291,0,15-6.709,15-15v-30c0-90.98-74.018-164.998-164.998-164.998S30,74.021,30,165.001v79.762
			c-17.422,6.213-30,22.707-30,42.236v179.998c0,24.814,20.186,44.999,44.999,44.999h299.997c24.814,0,44.999-20.186,44.999-44.999
			V286.999C389.995,262.185,369.81,242,344.996,242z M209.998,389.235v47.762c0,8.291-6.709,15-15,15s-15-6.709-15-15v-47.762
			c-17.422-6.213-30-22.707-30-42.236c0-24.814,20.186-45,45-45c24.814,0,44.999,20.186,44.999,45
			C239.997,366.529,227.419,383.022,209.998,389.235z"/>
	</g>
	<g>
		<path d="M496.994,211h-59.999c-8.291,0-15,6.709-15,15s6.709,15,15,15h59.999c8.291,0,15-6.709,15-15S505.285,211,496.994,211z"/>
	</g>
</svg>