<?xml version="1.0" encoding="utf-8"?>
<!-- Svg Vector Icons : http://www.onlinewebfonts.com/icon -->
<!DOCTYPE svg PUBLIC "-//W3C//DTD SVG 1.1//EN" "http://www.w3.org/Graphics/SVG/1.1/DTD/svg11.dtd">
<svg version="1.1" xmlns="http://www.w3.org/2000/svg" xmlns:xlink="http://www.w3.org/1999/xlink" x="0px" y="0px" viewBox="0 0 1000 1000" enable-background="new 0 0 1000 1000" xml:space="preserve">
  <metadata>
    Svg Vector Icons : http://www.onlinewebfonts.com/icon
  </metadata>
  <g><path
    d="M490.3,417.2c0.1-0.1,0.1-0.2,0.2-0.3c-0.2-1-0.4-1.8-0.4-2.4C490.2,415.4,490.3,416.3,490.3,417.2L490.3,417.2z M678.5,621.6L678.5,621.6c0,0-0.1,0-0.1-0.1C678.4,621.6,678.4,621.6,678.5,621.6L678.5,621.6z M683.3,622.3c-1.2-0.2-3.8,0.1-4.8-0.6C677.9,623.9,678.8,624.7,683.3,622.3L683.3,622.3z M500,12.4C229.4,12.4,10,230.6,10,500c0,269.3,219.4,487.6,490,487.6c270.7,0,490-218.3,490-487.6C990,230.6,770.7,12.4,500,12.4L500,12.4z M812.9,202.8c-16.9,0.5-28.6,0.5-42.2,9.8c-5.4,3.8-9.2,8.8-16.1,10.7c-6.3,1.7-12.9,0.2-19.2,2.3c-22.3,7.5-18.7,55-48,47.7c-13.8-3.3-23.4-19.6-30.4-30.1c-6.2-9.4-17.3-17-9.7-28.7c-3.5,0.9-7.1-0.1-10.4,0.5c4.6-10.3,20.4-9.4,23.1-14.6c6.6-13.1-17.9-14.6-24.9-16.4c8.3-8.9,12.5,3,20.8,1c7.9-2-4.2-12.3-9-13.5c-1.7-0.5-29.7,7.7-13.5-6.8c-19.9-12.6-39.9-25.4-59.8-38c-3.4,14.2,26.5,22.1,36.3,27.2c-1.5,5.8-10.6,14.3-17.6,11.8c-6.6-2.3-3.9-13.1-13.8-12.2c-7.1,16.4,15,11.6,17,21.7c2.3,11.5-8.4,6.6-12.4,6.4c-1-0.1-8.6-7.9-9-2c-0.5,7.1,12.2,4.3,13.1,11.5c-14.8,0.6-22.3-4.7-34.3-12.6c-14.1-9.3-21.2-8.4-38.4-8.4c5.2-2.1,12.3-3.6,16.6-7c2.4-1.9,11.8-11,12.4-13c2.7-8.8-0.1-8.1-8.5-13.9c-7.5-5.1-16.6-14.3-25.7-16.1c-32.9-6.5-10.2,29.6-35.1,34.5c0.4,0.1,0.9,0.1,1.2,0.1H474c0.1,0,0.1-0.1,0.1-0.1c-5.7-0.1-16.6-1.5-20.3,1.5c-2.7,2.1-2.9,10.7-5.8,13.9c-5.2,5.5-13,6.6-19.3,10.7c-6.1,3.8-19.5,13.9-23.1,20.7c-13.2,25,29.7,32.8,45.9,40.1c7.3,3.4,28.8,7.9,32.8,13.4c5.4,7.4-4.7,14.4,6.6,19.6c3.6,1.7,11,2,14.1-1.4c5-5.6-2-6.8-3.3-13.4c-2.3-12.5,1.5-7.5,7.8-12.2c12.9-9.5,10-10,5.4-25.2c-2.2-7-10.3-26.5-3.1-31.7c9.3-6.8,29.1,3.7,36.3,4.6c8.2,1,13,12.5,17.5,17.2c3,3,8.3,9.6,13.6,9c8.3-1.2,4.8-8.4,9.7-11.8c13-8.9,16.3,3.2,21.5,15.3c4.9,11.5,9.5,15.6,18.1,23c4.1,3.4,21.6,15.5,20,23.1c-1.1,5-21.2,12.7-26.6,14.4c-19.7,6.3-56.5-10.1-60.5,20.9c7.7-2.8,29.4-20.4,35.9-12.1c2.9,3.8-2.4,9.4-1.2,13.1c3.8,11.3,12.5,7.3,21.7,5.6c-0.6,0.4-1.3,0.7-2,1c12.5-6.4,11.3-5.1,17-15.5c1.9-3.4,4.6-11.6,7.3-14c9.2-8.3,10.5-2.6,16.2,3.9c1.5,1.6,15.4,21.7,10.4,20.7c-16.2-3.3-31.8-2.9-45.2,6c-7.8,5.1-15.1,12-24.4,15.4c-2.2,0.8-18.7,2.4-16.8-0.4c2.9-4.1,12.7-6.8,16.5-11.2c-10.6-4.4-19.6,5.3-28,10.9c-9,4.2-11,12-18.5,18.9c-3.3,3-9.5,3.5-12.8,7.4c-3.2,3.8-3.5,9.7-6.5,13.4c-2.1,2.5-7.5,1-9.7,4.8c-2.9,5,2.6,9.7,1.4,13.2c-2.2,6.5-14.7,12-19.5,16.7c0.6-0.6,1.3-1.3,1.9-1.9c-4.8,5.1-10.9,8.8-14.7,14.6c1.8,8.2,7.2,27.8,5.6,32.2c-5,14.8-14.6-8-18.6-14c-13.6-20.3-40.7-6.8-59.1-5c-23.7,2.2-46.9,32.7-32.3,57.5c7,11.9,18.8,16.5,32.3,13.8c12-2.5,15.6-19.3,26.9-19.6c20.8-0.5,0.5,20.3-1.3,28c-1.6,7,2.6,7.7,9.9,9.5c5.4,1.3,13.1-2.3,17.8,0.8c2.9,1.9,2.8,12.5,6.9,9.2c-8,6.6-6.1,22.3,2,28c9.2,6.3,19.9,0.5,29.3,2.8c18.1,4.6,9.5-1.4,25.2-10.8c10.7-6.4,12.4,1.2,19.8,1.2c4.9,0,8.1-7.1,16.4-5.1c6.7,1.8,9.4,7,17.4,8.1c3.3,0.4,6.8-1.3,9.9-0.9c15,1.6,26.3,11.1,38.1,19.8c9.7,7,16.1,5.6,27.4,8.9c8.3,2.3,23.5,14.3,22.8,24.8c-0.1,1.8-7.4,11.3-8.6,15.5c2.1,1.4,16.9-1.8,21.1-2.1c-1.4,1.6-11.4,8.7-11.4,4.9c0,1.9,7.1,5.8,8.8,7c5.2-16.9,13.9-6,24.2-1.8c8.8,3.6,19.7,3.8,29,6c7.9,1.9,25.5,7.3,31.4,13.7c7.1,7.8,2.2,20.4-3.1,28.3c-6.9,10.1-17.2,14.1-21.5,26c-3.4,9.5-0.9,19-2.8,29.5c-2.6,14.2-4.7,9.3-13.9,17.9c-7.8,7.3-0.1,6-10.7,10.7c-10.5,4.6-19.9,3.3-27.2,14.9c0.3-0.8,0.6-1.4,0.8-2.2c-3.1,4.3-4.6,13.1-6.2,16c-3.6,7.3-8.8,12.1-14.6,18.2c-2.2,2.3-22.9,30.4-24.1,28.1c-1.5-2.9-17.7,2.9-18.5-1.3c0.6,3.5-0.2,2.3,3.9,4.3c-3.7,23-13.4,26.5-36.2,26.7c1.9,11-8.2,8.9-13,14.8c-2.7,3.5-4.1,13.2-6,17.7c-1.2,2.9-10,14.2-10,16.4c-0.1,2.1,2.9,5.1,5.7,8c-16,3.2-32.3,5.4-48.9,6.8c3.1-4,3.9-7.3-6-7.8c2.6-7.1,8.9-11.3,11.5-18.1c1.3-3.2,0.2-4.5,1.3-7.8c3.6-11.2,2-6.9,0-15.6c-4.8-20.3,1.7-25.9,7.3-44.6c5.7-19.2,5.2-44,8.9-64.6c1.7-9.9,4.6-30.4,1.2-39.7c-3.9-10.5-21-18.8-28.8-25.8c-11.1-10-17-20.9-25.2-33.3c-4.1-6.3-9-12.4-12.2-19.3c-6.9-14.7,0-6,1.2-14.6c1.1-8.4-1-15.8,2.3-24.6c3.7-9.7,12.9-15.7,15.9-25.5c2.7-8.8,0.7-19.7-8.3-22.6c-5-1.6-10.5,2.1-15.5,1.3c-7-1.1-14.9-6.4-20.4-10.5c-7.7-5.8-10.6-15.2-18.8-20.8c-6.8-4.6-11.7-1.8-19-4c-7.7-2.2-12.4-11.6-18.6-14.5c-9.2-4.4-14.4,1.9-24.2,0.6c-8.3-1-21-10.2-28.7-13.7c-15.8-7-25.4-14.8-31.8-30.7c-5.4-13.6-13.2-20-22.5-31.5c-9.4-11.5-12.3-21.3-26.8-24.5c-1.8-0.3,3.4,12.2,4.1,13.2c5.2,9.5,12.9,18.2,19.2,27.1c9.3,13.1,5.4,15.5-4.1,2.9c-10.7-14.5-23.1-28.9-32.4-44.3c-3.5-5.7-2.9-9.5-8.6-15c-5.5-5.4-12.9-8-18.5-13c-20.2-18.1-24-42.4-21.6-68.3c0.7-8.4,3.8-15.1,2.4-23.3c-1-6.8-5.1-12.3-10.1-17.2c-1.6-2.6-5.7-8.9-5.9-9.2c-4.6-7.6-8.2-15.1-15.5-21.3c-4.1-3.6-15-12-25.3-19.1c45.9-57,106-102.1,174.9-130.2c0.5,3.4,2,6.8,4.3,10.1c5.7,8.4,11,7.7,22.1,10c-1.2,12.8-16.2,12.9-26.3,11.5c-12.1-1.7-24.9-5.6-35.4,4.9c5.8,3.6,21.7,17.1,19.6,3c11.6-0.6,22.9-1,34.1,0.4c4.6,0.6,19.9,5.7,24,3.4c1.8-1,3.6-9.5,5.5-12.2c-3.3,0-6.7-1.6-9.9-1.3c7.5-9.6,15-2.1,24.6,2.3c-10.6,6.4-4.4,21.8,5.9,9.3c8.5-10.1-2.1-17.6-12.8-23.5c10.8-13.5,17.5-14.8,27.6,0.5c1.8-9.4,9.4-5.7,17.3-4.9v-2.5c-3.5,0.1-7.3-1.9-10.7-1.5c8.1-12.9,2.9-15.8,14.5-20.1c9.2-3.2,35.6-0.1,38.8-8.8c-18.4,3.5-40.7,4.4-57.3,12.7c-7.1,3.6-15.7,15-22.9,7.5c-7.3-7.5,5.2-19.7,11.7-23.4h-1.6c29.2-6.3,59.3-9.6,90.4-9.6c20.1,0,39.7,1.5,59,4.1c-6.7,3.6-1.7,6-6.6,9.5c-9.3,6.8-25.8,12.5-36.8,16.8c14.1-0.1,48.1,13.1,54.6-6.5c-4.5-0.7-9-1.4-13.6-2.1c8.5-5.6,17.9-10.1,27.9-13.4c89.6,17.6,169.2,62.9,229.9,126.3C813.9,202.8,813.4,202.8,812.9,202.8L812.9,202.8z M892.4,374.1c0.8-1.7,2.7-2.3,3.4-3.7c1.6-2.9,1.3-4.9,3.3-7.5c2.2-2.8,5.1-3.4,7.4-5.6c1-0.9,1.6-1.7,2-2.5c7.3,20.1,13,40.9,17.3,62.2c-0.1,0.2-0.3,0.4-0.4,0.5c-1,0.8-7.9,1.8-9.3,1.9c-5,0.2-8.7-3.1-12.3-6.2c-3.7-3.2-7.9-7.3-10.5-11.5c-2.7-4.3-1-8.9-0.8-13.8C892.6,383.7,890.6,377.8,892.4,374.1L892.4,374.1z M897.9,597.6c-8.4-7.3-18.3-17.1-24.3-26.5c-6.4-10-2.4-20.3-2-31.9c0.4-9.6-4.3-23.4-0.3-32.1c1.9-4,6.3-5.3,8-8.6c3.9-6.9,3-11.6,7.6-17.5c5-6.4,11.8-7.9,17.2-12.9c5.9-5.3,5.7-9.4,9.5-16.1c2.7-4.9,9.1-13.1,15-17.4c3.3,21.3,5.1,43.2,5.1,65.4c0,38.4-5.2,75.7-14.7,111.1C911.1,609.1,904.3,603.2,897.9,597.6L897.9,597.6z"/></g>
</svg>