<svg height="512pt" viewBox="0 0 512.0005 512" width="512pt" xmlns="http://www.w3.org/2000/svg"><path
  d="m379.785156 115.078125c-4.578125 0-8.878906 1.78125-12.113281 5.019531-3.238281 3.234375-5.019531 7.539063-5.019531 12.113282 0 4.574218 1.78125 8.878906 5.019531 12.113281 3.234375 3.238281 7.535156 5.019531 12.113281 5.019531 4.574219 0 8.878906-1.78125 12.113282-5.019531 3.234374-3.234375 5.015624-7.539063 5.015624-12.113281 0-4.574219-1.78125-8.878907-5.015624-12.113282-3.238282-3.238281-7.539063-5.019531-12.113282-5.019531zm0 0"/><path
  d="m456.882812 0h-194.308593c-3.980469 0-7.792969 1.582031-10.605469 4.394531l-235.855469 235.851563c-21.484375 21.488281-21.484375 56.453125 0 77.9375l177.699219 177.695312c10.375 10.378906 24.214844 16.09375 38.964844 16.09375h.003906c14.753906 0 28.589844-5.71875 38.972656-16.09375l235.847656-235.851562c2.8125-2.816406 4.394532-6.628906 4.394532-10.605469l.003906-194.308594c-.003906-30.390625-24.730469-55.113281-55.117188-55.113281zm-43.773437 165.535156c-8.898437 8.902344-20.734375 13.804688-33.324219 13.804688s-24.425781-4.902344-33.328125-13.804688c-8.902343-8.898437-13.804687-20.734375-13.804687-33.324218 0-12.589844 4.902344-24.425782 13.804687-33.324219 8.902344-8.902344 20.738281-13.808594 33.328125-13.808594s24.425782 4.902344 33.328125 13.808594c8.898438 8.898437 13.800781 20.734375 13.800781 33.324219 0 12.589843-4.902343 24.425781-13.804687 33.324218zm0 0"/></svg>