<svg height="512pt" viewBox="0 0 512 512" width="512pt" xmlns="http://www.w3.org/2000/svg"><path
  d="m284.4375 237.761719-35.203125-7.8125c-13.390625-3.050781-28.804687-7.082031-28.804687-19.707031 0-12.652344 10.8125-21.492188 30.332031-21.492188 39.339843 0 35.746093 27.035156 55.277343 27.035156 10.277344 0 19.273438-6.042968 19.273438-16.433594 0-24.246093-38.804688-42.441406-71.722656-42.441406-35.734375 0-73.789063 15.175782-73.789063 55.59375 0 19.464844 6.953125 40.171875 45.257813 49.777344l47.5625 11.875c14.394531 3.546875 17.996094 11.644531 17.996094 18.949219 0 12.148437-12.066407 24.015625-33.925782 24.015625-42.699218 0-36.773437-32.859375-59.65625-32.859375-10.28125 0-17.742187 7.082031-17.742187 17.1875 0 19.703125 23.921875 45.996093 77.398437 45.996093 50.878906 0 76.089844-24.523437 76.089844-57.367187 0-21.207031-9.777344-43.722656-48.34375-52.316406zm0 0"/><path
  d="m256 0c-141.363281 0-256 114.636719-256 256s114.636719 256 256 256 256-114.636719 256-256-114.636719-256-256-256zm133.285156 388.90625c-16.832031 16.839844-39.199218 26.09375-62.996094 26.09375-15.414062 0-30.507812-4.007812-43.839843-11.550781-8.652344 1.535156-17.515625 2.34375-26.359375 2.34375-20.320313 0-40.039063-3.984375-58.589844-11.847657-17.9375-7.5625-34.027344-18.425781-47.859375-32.25-13.816406-13.820312-24.667969-29.910156-32.242187-47.839843-7.859376-18.5625-11.835938-38.269531-11.835938-58.59375 0-8.703125.78125-17.417969 2.265625-25.945313-7.316406-13.160156-11.210937-28.050781-11.210937-43.203125 0-23.800781 9.273437-46.179687 26.097656-63.007812 16.832031-16.835938 39.210937-26.105469 63.011718-26.105469 14.578126 0 28.984376 3.636719 41.789063 10.445312.023437-.003906.050781-.003906.070313-.011718 9.335937-1.789063 18.925781-2.691406 28.503906-2.691406 20.316406 0 40.03125 3.980468 58.582031 11.828124 17.917969 7.582032 34.027344 18.433594 47.839844 32.253907 13.832031 13.824219 24.679687 29.921875 32.261719 47.847656 7.859374 18.558594 11.835937 38.269531 11.835937 58.589844 0 9.160156-.863281 18.328125-2.507813 27.285156 7.367188 13.210937 11.285157 28.152344 11.285157 43.355469-.003907 23.800781-9.265625 46.183594-26.101563 63.003906zm0 0"/></svg>